# xmcd
# Track frame offsets:
# 150
# 13206
# 28255
# 39657
# 54321
# 70448
# 87772
# 101339
# 117697
# 132771
# 152275
# 169759
# 184592
# 200067
# 218130
# 228969
# 245789
#
# Disc length: 3490 seconds
# Revision: 2
# Processed by: cddbd v1.5.1PL2 Copyright (c) Steve Scherf et al.
# Submitted via: VisiTrax 2.10.0.248 - For more info visit www.synapsa.com
#
DISCID=ec0da011
DTITLE=Various Artist - The Winners Volume 6 CD 1
DYEAR=1998
DGENRE=Country
TTITLE0=Keith Urban And The Ranch - Walkin' The Country
TTITLE1=Tania Kernaghan - Dunroamin' Station
TTITLE2=Red Rivers - Hillbilly Heart
TTITLE3=Shanley Del - You Want To See Angels
TTITLE4=Troy Cassar Daley - Little Things
TTITLE5=Felicity with Clint Beattie - Early Hours
TTITLE6=The Wheel - Good Noise
TTITLE7=Beccy Cole - Rest In Pieces
TTITLE8=Fisk and Cristian - Lara
TTITLE9=Cam Fletcher - Wrong Reasons
TTITLE10=Crosby Sisters - Coming On Strong
TTITLE11=Lyn Bowtell - The One You Love
TTITLE12=Mitchell Shadlow - I Don't Have Far To Fall
TTITLE13=Sherrie Austin - One Solitary Tear
TTITLE14=Runaway Train - Nothin' That A Little Bit Of You Can't Cure
TTITLE15=Tanya Self and Adam Harvey - Drive Away
TTITLE16=Vanya - Fly Free
EXTD=
EXTT0=
EXTT1=
EXTT2=
EXTT3=
EXTT4=
EXTT5=
EXTT6=
EXTT7=
EXTT8=
EXTT9=
EXTT10=
EXTT11=
EXTT12=
EXTT13=
EXTT14=
EXTT15=
EXTT16=
PLAYORDER=
